<?xml version="1.0" ?>
<svg width="800px" height="800px" viewBox="0 0 32 32" xmlns="http://www.w3.org/2000/svg">
  <!-- Rounded square background -->
  <rect x="1" y="1" width="30" height="30" rx="6" stroke="#FFFFFF" stroke-width="2" fill="none"/>
  
  <!-- User icon -->
  <g transform="scale(0.8) translate(4, 4)" fill="#FFFFFF">
    <path d="M16,14a6,6,0,1,1,6-6A6,6,0,0,1,16,14ZM16,4a4,4,0,1,0,4,4A4,4,0,0,0,16,4Z"/>
    <path d="M24,30H8a2,2,0,0,1-2-2V22a7,7,0,0,1,7-7h6a7,7,0,0,1,7,7v6A2,2,0,0,1,24,30ZM13,17a5,5,0,0,0-5,5v6H24V22a5,5,0,0,0-5-5Z"/>
  </g>
</svg>